<?xml version="1.0" encoding="utf-8"?>
<!-- Generator: Adobe Illustrator 19.1.0, SVG Export Plug-In . SVG Version: 6.00 Build 0)  -->
<svg version="1.1" id="Layer_1" xmlns="http://www.w3.org/2000/svg" xmlns:xlink="http://www.w3.org/1999/xlink" x="0px" y="0px"
	 viewBox="-558 254 162.3 93" style="enable-background:new -558 254 162.3 93;" xml:space="preserve">
<style type="text/css">
	.st0{fill:#537AB5;}
	.st1{fill:#89B3E5;}
</style>
<g id="Bkg">
</g>
<g>
	<g>
		<path d="M-487.4,287.7c-0.2,0-0.4,0.1-0.4,0.4v5.3c0,0.2,0.1,0.4,0.4,0.4h1.9c0.2,0,0.4,0.1,0.4,0.4s-0.1,0.4-0.4,0.4h-5
			c-0.2,0-0.4-0.1-0.4-0.4s0.1-0.4,0.4-0.4h1.7c0.2,0,0.4-0.1,0.4-0.4v-14.7c0-0.2-0.1-0.4-0.4-0.4h-1.7c-0.2,0-0.4-0.1-0.4-0.4
			c0-0.2,0.1-0.4,0.4-0.4h8.1c1.6,0,2.8,0.4,3.6,1.3c0.8,0.9,1.2,2.1,1.2,3.8s-0.4,2.9-1.2,3.8c-0.8,0.9-2,1.3-3.6,1.3L-487.4,287.7
			L-487.4,287.7z M-482.5,287c2.7,0,4.1-1.4,4.1-4.3c0-2.9-1.4-4.3-4.1-4.3h-4.9c-0.2,0-0.4,0.1-0.4,0.4v7.9c0,0.2,0.1,0.4,0.4,0.4
			L-482.5,287L-482.5,287z"/>
		<path d="M-466.8,282.9c-2,0-3.7,0.8-5,2.4c-0.4,0.4-0.7,0.9-1,1.3v6.7c0,0.2,0.1,0.4,0.4,0.4h1.9c0.2,0,0.4,0.1,0.4,0.4
			s-0.1,0.4-0.4,0.4h-5c-0.2,0-0.4-0.1-0.4-0.4s0.1-0.4,0.4-0.4h1.7c0.2,0,0.4-0.1,0.4-0.4v-9.9c0-0.2-0.1-0.4-0.4-0.4h-1.7
			c-0.2,0-0.4-0.1-0.4-0.4c0-0.2,0.1-0.4,0.4-0.4h2.4c0.2,0,0.4,0.1,0.4,0.4v1.9c0,0.4,0.2,0.4,0.5,0c0.6-0.7,1.4-1.3,2.3-1.8
			c1-0.5,2-0.8,3.2-0.8h1.2c0.2,0,0.4,0.1,0.4,0.4v3c0,0.2-0.1,0.4-0.4,0.4c-0.2,0-0.4-0.1-0.4-0.4V283c0-0.2-0.1-0.4-0.4-0.4h-0.5
			V282.9z"/>
		<path d="M-461.8,293c-1.1-1.2-1.6-2.7-1.6-4.5c0-1.9,0.5-3.4,1.6-4.5c1.1-1.1,2.5-1.7,4.3-1.7c1.7,0,3.2,0.6,4.3,1.7
			c1.1,1.2,1.6,2.7,1.6,4.5c0,1.9-0.5,3.4-1.6,4.5c-1.1,1.2-2.5,1.7-4.3,1.7C-459.2,294.7-460.7,294.1-461.8,293z M-457.5,282.9
			c-1.6,0-2.8,0.5-3.7,1.5c-0.9,1-1.4,2.4-1.4,4c0,1.7,0.5,3,1.4,4c0.9,1,2.2,1.5,3.8,1.5s2.8-0.5,3.8-1.5c0.9-1,1.4-2.3,1.4-4
			c0-1.7-0.5-3-1.4-4C-454.7,283.4-455.9,282.9-457.5,282.9z"/>
		<path d="M-450.5,298.8c0.9,0,1.6-0.3,2.1-0.9c0.5-0.6,0.8-1.5,0.8-2.6v-11.8c0-0.2-0.1-0.4-0.4-0.4h-1.7c-0.2,0-0.4-0.1-0.4-0.4
			c0-0.2,0.1-0.4,0.4-0.4h2.4c0.2,0,0.4,0.1,0.4,0.4v12.5c0,1.4-0.3,2.4-0.9,3.1c-0.6,0.7-1.5,1.1-2.8,1.1c-1.2,0-2.2-0.5-3-1.4
			c-0.1-0.1-0.2-0.2-0.2-0.3c0-0.1,0-0.2,0.1-0.2c0.2-0.2,0.4-0.1,0.6,0.1C-452.3,298.4-451.4,298.8-450.5,298.8z M-448.1,280.3
			c-0.2-0.2-0.3-0.4-0.3-0.7s0.1-0.5,0.3-0.7c0.2-0.2,0.4-0.3,0.7-0.3c0.3,0,0.5,0.1,0.7,0.3c0.2,0.2,0.3,0.4,0.3,0.7
			s-0.1,0.5-0.3,0.7c-0.2,0.2-0.4,0.3-0.7,0.3C-447.7,280.6-447.9,280.4-448.1,280.3z"/>
		<path d="M-434,292.8c0.3-0.2,0.5-0.4,0.6-0.5c0.1-0.1,0.2-0.2,0.3-0.1c0.1,0,0.2,0.1,0.3,0.3c0.1,0.1,0.1,0.3-0.1,0.4
			c-0.6,0.5-1.2,0.9-2,1.3c-0.8,0.4-1.7,0.5-2.9,0.5c-1.7,0-3.1-0.6-4.1-1.8s-1.6-2.7-1.6-4.5s0.5-3.3,1.6-4.5
			c1-1.2,2.4-1.8,4.1-1.8s3,0.5,4.1,1.6c1.1,1.1,1.6,2.3,1.6,3.8v0.4c0,0.5-0.2,0.7-0.7,0.7h-9.5c-0.3,0-0.4,0.1-0.4,0.4
			c0.1,1.4,0.6,2.6,1.4,3.5c0.9,0.9,2,1.4,3.5,1.4S-435,293.6-434,292.8z M-442.6,287.7c0,0.2,0.1,0.3,0.3,0.3h9.1
			c0.2,0,0.4-0.1,0.4-0.4c0-1.3-0.5-2.4-1.4-3.3c-0.9-0.9-2.1-1.4-3.6-1.4c-1.4,0-2.6,0.5-3.5,1.5
			C-442.2,285.5-442.6,286.5-442.6,287.7z"/>
		<path d="M-419.9,285.5c-1.3-1.7-2.8-2.5-4.6-2.5c-1.3,0-2.4,0.5-3.3,1.5c-0.9,1-1.3,2.4-1.3,4s0.5,3,1.4,4s2.1,1.5,3.6,1.5
			s2.7-0.4,3.7-1.2c0.3-0.2,0.5-0.4,0.6-0.5c0.1-0.1,0.3-0.2,0.3-0.1c0,0.1,0.2,0.1,0.2,0.2c0.1,0.1,0.1,0.2,0.1,0.3
			c0,0.1-0.1,0.2-0.2,0.3c-0.5,0.5-1.2,0.9-1.9,1.2c-0.8,0.4-1.7,0.5-2.9,0.5c-1.7,0-3.1-0.6-4.1-1.7c-1-1.2-1.6-2.7-1.6-4.5
			s0.5-3.3,1.5-4.5s2.3-1.7,3.8-1.7s2.9,0.6,4.1,1.8c0.3,0.2,0.4,0.1,0.4-0.2v-1c0-0.2,0.1-0.4,0.4-0.4c0.2,0,0.4,0.1,0.4,0.4v3.8
			c0,0.2-0.1,0.4-0.4,0.4c-0.2,0-0.4-0.1-0.4-0.4v-1.2H-419.9z"/>
		<path d="M-408.8,292.8c0.2-0.2,0.3-0.2,0.4,0c0.1,0.1,0.2,0.2,0.2,0.3s0,0.2-0.2,0.3c-0.4,0.4-0.8,0.7-1.2,0.9
			c-1,0.3-1.6,0.5-1.7,0.5c-0.1,0-0.2,0-0.2,0c-1.1,0-2-0.4-2.6-1.1s-1-1.8-1-3.1v-7c0-0.2-0.1-0.4-0.4-0.4h-1.7
			c-0.2,0-0.4-0.1-0.4-0.4c0-0.2,0.1-0.4,0.4-0.4h1.7c0.2,0,0.4-0.1,0.4-0.4v-4.1c0-0.2,0.1-0.4,0.4-0.4s0.4,0.1,0.4,0.4v4.1
			c0,0.2,0.1,0.4,0.4,0.4h4.1c0.2,0,0.4,0.1,0.4,0.4c0,0.2-0.1,0.4-0.4,0.4h-4.1c-0.2,0-0.4,0.1-0.4,0.4v7c0,1.2,0.3,2,0.8,2.6
			c0.5,0.6,1.2,0.9,2.1,0.9C-410.5,294-409.7,293.6-408.8,292.8z"/>
		<path d="M-490.9,322.9c0-0.2,0.1-0.4,0.4-0.4h1.7c0.2,0,0.4-0.1,0.4-0.4v-14.5c0-0.2-0.1-0.4-0.4-0.4h-1.7c-0.2,0-0.4-0.1-0.4-0.4
			c0-0.2,0.1-0.4,0.4-0.4h4.8c0.2,0,0.4,0.1,0.4,0.4c0,0.2-0.1,0.4-0.4,0.4h-1.7c-0.2,0-0.4,0.1-0.4,0.4v14.7c0,0.2,0.1,0.4,0.4,0.4
			h1.7c0.2,0,0.4,0.1,0.4,0.4s-0.1,0.4-0.4,0.4h-4.8C-490.8,323.3-490.9,323.2-490.9,322.9z"/>
		<path d="M-473.6,307.6c0-0.2-0.1-0.4-0.4-0.4h-1.9c-0.2,0-0.4-0.1-0.4-0.4c0-0.2,0.1-0.4,0.4-0.4h2.6c0.2,0,0.4,0.1,0.4,0.4v15.4
			c0,0.2,0.1,0.4,0.4,0.4h1.7c0.2,0,0.4,0.1,0.4,0.4s-0.1,0.4-0.4,0.4h-2.4c-0.2,0-0.4-0.1-0.4-0.4v-1.4c0-0.2,0-0.3-0.1-0.3
			c-0.1,0-0.2,0-0.3,0.1c-0.4,0.5-1,1-1.8,1.5c-0.8,0.5-1.6,0.7-2.5,0.7c-1.7,0-3-0.6-4-1.7c-1-1.1-1.4-2.6-1.4-4.6s0.6-3.4,1.7-4.5
			c1.1-1.1,2.7-1.6,4.8-1.6h3.2c0.2,0,0.4-0.1,0.4-0.4V307.6z M-473.6,312.4c0-0.2-0.1-0.4-0.4-0.4h-3.2c-1.8,0-3.2,0.4-4.3,1.3
			c-1,0.9-1.5,2.2-1.5,4c0,1.7,0.4,3.1,1.3,4.1c0.8,1,1.9,1.5,3.3,1.5s2.5-0.5,3.6-1.6c0.4-0.4,0.9-1,1.2-1.6L-473.6,312.4
			L-473.6,312.4z"/>
		<path d="M-459.1,321.6c0.3-0.2,0.5-0.4,0.6-0.5s0.2-0.2,0.3-0.1c0.1,0,0.2,0.1,0.3,0.3c0.1,0.1,0.1,0.3-0.1,0.4
			c-0.6,0.5-1.2,0.9-2,1.3c-0.8,0.4-1.7,0.5-2.9,0.5c-1.7,0-3.1-0.6-4.1-1.8c-1-1.2-1.5-2.7-1.5-4.5c0-1.8,0.5-3.3,1.5-4.5
			c1-1.2,2.4-1.8,4.1-1.8c1.7,0,3,0.5,4.1,1.6s1.6,2.3,1.6,3.8v0.4c0,0.5-0.2,0.7-0.7,0.7h-9.5c-0.3,0-0.4,0.1-0.4,0.4
			c0.1,1.4,0.6,2.6,1.4,3.5c0.9,0.9,2,1.4,3.5,1.4C-461.3,322.8-460.1,322.4-459.1,321.6z M-467.7,316.5c0,0.2,0.1,0.3,0.3,0.3h9.1
			c0.2,0,0.4-0.1,0.4-0.4c0-1.3-0.5-2.4-1.4-3.3s-2.1-1.4-3.6-1.4c-1.4,0-2.6,0.5-3.5,1.5C-467.3,314.3-467.7,315.4-467.7,316.5z"/>
		<path d="M-454.9,322.6h1.7c0.2,0,0.4-0.1,0.4-0.4v-9.9c0-0.2-0.1-0.4-0.4-0.4h-1.7c-0.2,0-0.4-0.1-0.4-0.4s0.1-0.4,0.4-0.4h2.4
			c0.2,0,0.4,0.1,0.4,0.4v1.3c0,0.2,0,0.3,0.1,0.3s0.2,0,0.3-0.1c1.3-1.5,2.7-2.2,4.2-2.2s2.7,0.4,3.5,1.2s1.2,2,1.2,3.6v6.4
			c0,0.2,0.1,0.4,0.4,0.4h1.7c0.2,0,0.4,0.1,0.4,0.4s-0.1,0.4-0.4,0.4h-4.6c-0.2,0-0.4-0.1-0.4-0.4s0.1-0.4,0.4-0.4h1.4
			c0.2,0,0.4-0.1,0.4-0.4v-6.4c0-1.4-0.4-2.4-1.1-3.1c-0.7-0.7-1.7-1-2.9-1s-2.4,0.5-3.5,1.6c-0.5,0.5-0.9,1-1.3,1.6v7.2
			c0,0.2,0.1,0.4,0.4,0.4h1.4c0.2,0,0.4,0.1,0.4,0.4s-0.1,0.4-0.4,0.4h-4.6c-0.2,0-0.4-0.1-0.4-0.4S-455.1,322.6-454.9,322.6z"/>
		<path d="M-431.4,321.6c0.2-0.2,0.3-0.2,0.4,0c0.1,0.1,0.2,0.2,0.2,0.3c0,0.1,0,0.2-0.2,0.3c-0.4,0.4-0.8,0.7-1.2,0.9
			c-1,0.3-1.6,0.5-1.7,0.5s-0.2,0-0.2,0c-1.1,0-2-0.4-2.6-1.1c-0.6-0.7-1-1.8-1-3.1v-7c0-0.2-0.1-0.4-0.4-0.4h-1.7
			c-0.2,0-0.4-0.1-0.4-0.4s0.1-0.4,0.4-0.4h1.7c0.2,0,0.4-0.1,0.4-0.4v-4.1c0-0.2,0.1-0.4,0.4-0.4s0.4,0.1,0.4,0.4v4.1
			c0,0.2,0.1,0.4,0.4,0.4h4.1c0.2,0,0.4,0.1,0.4,0.4s-0.1,0.4-0.4,0.4h-4.1c-0.2,0-0.4,0.1-0.4,0.4v7c0,1.2,0.3,2,0.8,2.6
			s1.2,0.9,2.1,0.9S-432.3,322.4-431.4,321.6z"/>
		<path d="M-429.8,322.9c0-0.2,0.1-0.4,0.4-0.4h1.7c0.2,0,0.4-0.1,0.4-0.4v-9.9c0-0.2-0.1-0.4-0.4-0.4h-1.7c-0.2,0-0.4-0.1-0.4-0.4
			s0.1-0.4,0.4-0.4h2.4c0.2,0,0.4,0.1,0.4,0.4V322c0,0.2,0.1,0.4,0.4,0.4h1.7c0.2,0,0.4,0.1,0.4,0.4s-0.1,0.4-0.4,0.4h-4.8
			C-429.7,323.3-429.8,323.2-429.8,322.9z M-427.9,309.1c-0.2-0.2-0.3-0.4-0.3-0.7c0-0.3,0.1-0.5,0.3-0.7s0.4-0.3,0.7-0.3
			c0.3,0,0.5,0.1,0.7,0.3s0.3,0.4,0.3,0.7c0,0.3-0.1,0.5-0.3,0.7s-0.4,0.3-0.7,0.3C-427.5,309.4-427.7,309.3-427.9,309.1z"/>
		<path d="M-415,321.6c0.2-0.2,0.3-0.2,0.4,0s0.2,0.2,0.2,0.3c0,0.1,0,0.2-0.2,0.3c-0.4,0.4-0.8,0.7-1.2,0.9c-1,0.3-1.6,0.5-1.7,0.5
			c-0.1,0-0.2,0-0.2,0c-1.1,0-2-0.4-2.6-1.1c-0.6-0.7-1-1.8-1-3.1v-7c0-0.2-0.1-0.4-0.4-0.4h-1.7c-0.2,0-0.4-0.1-0.4-0.4
			s0.1-0.4,0.4-0.4h1.7c0.2,0,0.4-0.1,0.4-0.4v-4.1c0-0.2,0.1-0.4,0.4-0.4c0.2,0,0.4,0.1,0.4,0.4v4.1c0,0.2,0.1,0.4,0.4,0.4h4.1
			c0.2,0,0.4,0.1,0.4,0.4s-0.1,0.4-0.4,0.4h-4.1c-0.2,0-0.4,0.1-0.4,0.4v7c0,1.2,0.3,2,0.8,2.6s1.2,0.9,2.1,0.9
			S-415.9,322.4-415,321.6z"/>
		<path d="M-408.2,327.2c-0.4,0.4-0.8,0.8-1.2,0.9c-0.4,0.2-0.8,0.3-1.2,0.3c-0.8,0-1.4-0.1-1.9-0.4s-0.9-0.6-1.2-0.9
			c-0.2-0.2-0.2-0.4,0-0.5c0.2-0.2,0.3-0.2,0.5,0c0.3,0.3,0.6,0.5,1,0.8s1,0.4,1.6,0.4s1.3-0.3,1.7-0.8c0.5-0.6,1-1.4,1.4-2.7
			l0.2-0.6c0.1-0.2,0.1-0.4,0-0.6l-5-10.6c-0.1-0.2-0.3-0.4-0.5-0.4h-1.6c-0.2,0-0.4-0.1-0.4-0.4s0.1-0.4,0.4-0.4h4.6
			c0.2,0,0.4,0.1,0.4,0.4s-0.1,0.4-0.4,0.4h-1.5c-0.3,0-0.4,0.1-0.2,0.4l4.5,9.5c0.1,0.2,0.2,0.2,0.3,0l3.7-9.5
			c0.1-0.2,0-0.4-0.2-0.4h-1.5c-0.2,0-0.4-0.1-0.4-0.4s0.1-0.4,0.4-0.4h4.6c0.2,0,0.4,0.1,0.4,0.4s-0.1,0.4-0.4,0.4h-1.6
			c-0.2,0-0.4,0.1-0.5,0.4l-4.6,11.8C-407.2,325.7-407.7,326.7-408.2,327.2z"/>
		<path d="M-399,323.2c-0.2-0.2-0.3-0.5-0.3-0.9s0.1-0.7,0.3-0.9s0.5-0.3,0.9-0.3s0.7,0.1,0.9,0.3s0.3,0.5,0.3,0.9s-0.1,0.7-0.3,0.9
			s-0.5,0.3-0.9,0.3S-398.8,323.4-399,323.2z"/>
	</g>
	<circle class="st0" cx="-527.4" cy="300.5" r="29.4"/>
	<circle class="st1" cx="-527.4" cy="300.5" r="23.4"/>
</g>
</svg>
