<?xml version="1.0" encoding="utf-8"?>
<!-- Generator: Adobe Illustrator 19.1.0, SVG Export Plug-In . SVG Version: 6.00 Build 0)  -->
<svg version="1.1" id="Layer_1" xmlns="http://www.w3.org/2000/svg" xmlns:xlink="http://www.w3.org/1999/xlink" x="0px" y="0px"
	 viewBox="-253 207.3 240 19.7" style="enable-background:new -253 207.3 240 19.7;" xml:space="preserve">
<style type="text/css">
	.st0{fill:#231F20;}
</style>
<g>
	<g>
		<path class="st0" d="M-76.9,212.4h-4.8v9.8h4.7c3,0,5.1-2.2,5.1-5C-71.8,214.4-73.9,212.4-76.9,212.4z M-77,220.6L-77,220.6h-2.9
			v-6.4h2.9c1.9,0,3.2,1.4,3.2,3.2S-75,220.4-77,220.6z"/>
		<polygon class="st0" points="-84.3,214.2 -84.3,212.4 -94.1,212.4 -94.1,214.2 -90.1,214.2 -90.1,220.4 -94.1,220.4 -94.1,222.2 
			-84.3,222.2 -84.3,220.4 -88.3,220.4 -88.3,214.2 		"/>
		<polygon class="st0" points="-59.8,214.2 -59.8,212.4 -69.7,212.4 -69.7,222.2 -59.8,222.2 -59.8,220.4 -67.9,220.4 -67.9,218.2 
			-61.5,218.2 -61.5,216.4 -67.9,216.4 -67.9,214.2 		"/>
		<path class="st0" d="M-52.8,211.9c-3,0-5.4,2.4-5.4,5.3c0,2.9,2.4,5.3,5.4,5.3s5.4-2.4,5.4-5.3C-47.4,214.4-49.8,211.9-52.8,211.9
			z M-52.8,220.9c-1.9,0-3.6-1.6-3.6-3.5c0-1.9,1.6-3.5,3.6-3.5c1.9,0,3.6,1.6,3.6,3.5C-49.2,219.2-50.8,220.9-52.8,220.9z"/>
	</g>
	<g>
		<path class="st0" d="M-110.4,216.9h2.9v-2.9h0.8v2.9h2.9v0.8h-2.9v2.9h-0.8v-2.9h-2.9V216.9z"/>
	</g>
	<g>
		<path d="M-211.7,217.5c-0.1-0.1-0.2-0.2-0.3-0.2h-3.7c-0.2,0-0.3,0.1-0.3,0.2l-0.9,2.4c-0.1,0.1,0,0.2,0.1,0.2h0.8
			c0.1,0,0.2,0.1,0.2,0.2c0,0.1-0.1,0.2-0.2,0.2h-2.4c-0.1,0-0.2-0.1-0.2-0.2c0-0.1,0.1-0.2,0.2-0.2h0.8c0.1,0,0.2-0.1,0.3-0.2
			l3.2-8.4c0-0.1,0.1-0.2,0.3-0.2c0.2,0,0.2,0.1,0.3,0.2l3.2,8.4c0.1,0.1,0.1,0.2,0.3,0.2h0.8c0.1,0,0.2,0.1,0.2,0.2
			c0,0.1-0.1,0.2-0.2,0.2h-2.4c-0.1,0-0.2-0.1-0.2-0.2c0-0.1,0.1-0.2,0.2-0.2h0.8c0.1,0,0.2-0.1,0.1-0.2L-211.7,217.5z
			 M-213.8,212.2C-213.8,212.1-213.8,212.1-213.8,212.2c-0.1-0.1-0.1-0.1-0.2,0l-1.8,4.6c-0.1,0.1,0,0.2,0.1,0.2h3.4
			c0.2,0,0.2-0.1,0.1-0.2L-213.8,212.2z"/>
		<path d="M-203.5,215.6c-0.7-0.9-1.5-1.4-2.4-1.4c-0.7,0-1.3,0.3-1.8,0.8c-0.5,0.6-0.7,1.3-0.7,2.2c0,0.9,0.2,1.6,0.7,2.1
			c0.5,0.5,1.1,0.8,1.9,0.8c0.8,0,1.5-0.2,2-0.6c0.1-0.1,0.2-0.2,0.3-0.3c0.1-0.1,0.1-0.1,0.2-0.1c0,0,0.1,0.1,0.1,0.1
			c0,0.1,0.1,0.1,0.1,0.1c0,0,0,0.1-0.1,0.2c-0.3,0.2-0.6,0.5-1,0.7c-0.4,0.2-0.9,0.3-1.6,0.3c-0.9,0-1.6-0.3-2.2-0.9
			c-0.6-0.6-0.8-1.4-0.8-2.4c0-1,0.3-1.8,0.8-2.4c0.5-0.6,1.2-0.9,2.1-0.9c0.8,0,1.6,0.3,2.2,1c0.1,0.1,0.2,0.1,0.2-0.1v-0.5
			c0-0.1,0.1-0.2,0.2-0.2c0.1,0,0.2,0.1,0.2,0.2v2.1c0,0.1-0.1,0.2-0.2,0.2c-0.1,0-0.2-0.1-0.2-0.2V215.6z"/>
		<path d="M-201.7,220.1h0.9c0.1,0,0.2-0.1,0.2-0.2v-5.3c0-0.1-0.1-0.2-0.2-0.2h-0.9c-0.1,0-0.2-0.1-0.2-0.2c0-0.1,0.1-0.2,0.2-0.2
			h1.3c0.1,0,0.2,0.1,0.2,0.2v0.7c0,0.2,0.1,0.3,0.2,0.1c0.7-0.8,1.3-1.2,2-1.2c0.5,0,0.9,0.1,1.3,0.4c0.4,0.3,0.6,0.7,0.8,1.2
			c0.2-0.3,0.4-0.6,0.6-0.8c0.5-0.5,1.1-0.8,1.7-0.8c0.6,0,1.1,0.2,1.5,0.7c0.4,0.5,0.6,1.1,0.6,1.9v3.4c0,0.1,0.1,0.2,0.2,0.2h0.9
			c0.1,0,0.2,0.1,0.2,0.2c0,0.1-0.1,0.2-0.2,0.2h-2.4c-0.1,0-0.2-0.1-0.2-0.2c0-0.1,0.1-0.2,0.2-0.2h0.8c0.1,0,0.2-0.1,0.2-0.2v-3.4
			c0-0.7-0.2-1.2-0.5-1.6c-0.3-0.4-0.8-0.6-1.3-0.6c-0.5,0-1.1,0.3-1.6,0.9c-0.2,0.3-0.4,0.6-0.6,0.9c0,0.2,0,0.3,0,0.4v3.4
			c0,0.1,0.1,0.2,0.2,0.2h0.8c0.1,0,0.2,0.1,0.2,0.2c0,0.1-0.1,0.2-0.2,0.2h-2.3c-0.1,0-0.2-0.1-0.2-0.2c0-0.1,0.1-0.2,0.2-0.2h0.8
			c0.1,0,0.2-0.1,0.2-0.2v-3.4c0-0.7-0.2-1.2-0.5-1.6s-0.8-0.6-1.3-0.6s-1,0.3-1.6,0.9c-0.2,0.2-0.4,0.5-0.6,0.9v3.9
			c0,0.1,0.1,0.2,0.2,0.2h0.8c0.1,0,0.2,0.1,0.2,0.2c0,0.1-0.1,0.2-0.2,0.2h-2.4c-0.1,0-0.2-0.1-0.2-0.2
			C-201.9,220.1-201.8,220.1-201.7,220.1z"/>
		<path d="M-184.3,219.6c0.1-0.1,0.2-0.2,0.3-0.3c0.1-0.1,0.1-0.1,0.2-0.1c0,0,0.1,0.1,0.2,0.1c0.1,0.1,0,0.2-0.1,0.2
			c-0.3,0.3-0.7,0.5-1.1,0.7c-0.4,0.2-0.9,0.3-1.5,0.3c-0.9,0-1.6-0.3-2.2-0.9s-0.8-1.4-0.8-2.4c0-1,0.3-1.8,0.8-2.4
			c0.6-0.6,1.3-0.9,2.2-0.9s1.6,0.3,2.2,0.8c0.6,0.6,0.8,1.2,0.8,2v0.2c0,0.3-0.1,0.4-0.4,0.4h-5.1c-0.1,0-0.2,0.1-0.2,0.2
			c0.1,0.7,0.3,1.4,0.8,1.9c0.5,0.5,1.1,0.8,1.9,0.8C-185.5,220.2-184.9,220-184.3,219.6z M-189,216.8c0,0.1,0.1,0.2,0.2,0.2h4.9
			c0.1,0,0.2-0.1,0.2-0.2c0-0.7-0.3-1.3-0.8-1.8c-0.5-0.5-1.1-0.7-1.9-0.7c-0.8,0-1.4,0.3-1.9,0.8C-188.7,215.6-189,216.2-189,216.8
			z"/>
		<path d="M-178.4,216c0-1.3,0.4-2.4,1.1-3.3c0.8-0.9,1.7-1.3,2.9-1.3c1,0,2,0.4,2.8,1.1c0.1,0.1,0.2,0.1,0.2-0.1v-0.6
			c0-0.1,0.1-0.2,0.2-0.2c0.1,0,0.2,0.1,0.2,0.2v2.4c0,0.1-0.1,0.2-0.2,0.2c-0.1,0-0.2-0.1-0.2-0.2v-0.9c-0.2-0.3-0.5-0.5-0.8-0.7
			c-0.7-0.5-1.4-0.7-2.2-0.7c-1.1,0-1.9,0.4-2.6,1.2c-0.7,0.8-1,1.8-1,3.1c0,1.2,0.4,2.2,1.1,3c0.7,0.8,1.7,1.2,2.9,1.2
			c1.2,0,2.2-0.4,2.9-1.2c0.1-0.1,0.2-0.1,0.2,0c0.1,0.1,0.1,0.1,0.1,0.2s0,0.1-0.1,0.1c-0.9,0.9-2,1.3-3.2,1.3
			c-1.3,0-2.3-0.4-3.1-1.3C-178,218.4-178.4,217.3-178.4,216z"/>
		<path d="M-168.8,219.7c-0.6-0.6-0.9-1.4-0.9-2.4s0.3-1.8,0.9-2.4c0.6-0.6,1.3-0.9,2.3-0.9c0.9,0,1.7,0.3,2.3,0.9
			c0.6,0.6,0.9,1.4,0.9,2.4s-0.3,1.8-0.9,2.4s-1.3,0.9-2.3,0.9C-167.5,220.6-168.2,220.3-168.8,219.7z M-166.6,214.3
			c-0.8,0-1.5,0.3-2,0.8c-0.5,0.5-0.8,1.3-0.8,2.2s0.3,1.6,0.8,2.1c0.5,0.5,1.2,0.8,2,0.8c0.8,0,1.5-0.3,2-0.8
			c0.5-0.5,0.8-1.3,0.8-2.1s-0.3-1.6-0.8-2.2C-165,214.6-165.7,214.3-166.6,214.3z"/>
		<path d="M-162.2,220.1h0.9c0.1,0,0.2-0.1,0.2-0.2v-5.3c0-0.1-0.1-0.2-0.2-0.2h-0.9c-0.1,0-0.2-0.1-0.2-0.2c0-0.1,0.1-0.2,0.2-0.2
			h1.3c0.1,0,0.2,0.1,0.2,0.2v0.7c0,0.2,0.1,0.3,0.2,0.1c0.7-0.8,1.3-1.2,2-1.2c0.5,0,0.9,0.1,1.3,0.4c0.4,0.3,0.6,0.7,0.8,1.2
			c0.2-0.3,0.4-0.6,0.6-0.8c0.5-0.5,1.1-0.8,1.7-0.8s1.1,0.2,1.5,0.7c0.4,0.5,0.6,1.1,0.6,1.9v3.4c0,0.1,0.1,0.2,0.2,0.2h0.9
			c0.1,0,0.2,0.1,0.2,0.2c0,0.1-0.1,0.2-0.2,0.2h-2.4c-0.1,0-0.2-0.1-0.2-0.2c0-0.1,0.1-0.2,0.2-0.2h0.8c0.1,0,0.2-0.1,0.2-0.2v-3.4
			c0-0.7-0.2-1.2-0.5-1.6c-0.3-0.4-0.8-0.6-1.3-0.6c-0.5,0-1.1,0.3-1.6,0.9c-0.2,0.3-0.4,0.6-0.6,0.9c0,0.2,0,0.3,0,0.4v3.4
			c0,0.1,0.1,0.2,0.2,0.2h0.8c0.1,0,0.2,0.1,0.2,0.2c0,0.1-0.1,0.2-0.2,0.2h-2.3c-0.1,0-0.2-0.1-0.2-0.2c0-0.1,0.1-0.2,0.2-0.2h0.8
			c0.1,0,0.2-0.1,0.2-0.2v-3.4c0-0.7-0.2-1.2-0.5-1.6c-0.3-0.4-0.8-0.6-1.3-0.6c-0.5,0-1,0.3-1.6,0.9c-0.2,0.2-0.4,0.5-0.6,0.9v3.9
			c0,0.1,0.1,0.2,0.2,0.2h0.8c0.1,0,0.2,0.1,0.2,0.2c0,0.1-0.1,0.2-0.2,0.2h-2.4c-0.1,0-0.2-0.1-0.2-0.2
			C-162.4,220.1-162.3,220.1-162.2,220.1z"/>
		<path d="M-148.4,220.5c-0.1,0-0.2,0.1-0.2,0.2v1.8c0,0.1,0.1,0.2,0.2,0.2h1c0.1,0,0.2,0.1,0.2,0.2s-0.1,0.2-0.2,0.2h-2.7
			c-0.1,0-0.2-0.1-0.2-0.2s0.1-0.2,0.2-0.2h0.9c0.1,0,0.2-0.1,0.2-0.2v-7.9c0-0.1-0.1-0.2-0.2-0.2h-0.9c-0.1,0-0.2-0.1-0.2-0.2
			c0-0.1,0.1-0.2,0.2-0.2h1.3c0.1,0,0.2,0.1,0.2,0.2v0.7c0,0.1,0,0.1,0.1,0.2c0,0,0.1,0,0.2-0.1c0.2-0.3,0.5-0.5,0.9-0.8
			c0.4-0.3,0.9-0.4,1.4-0.4c0.9,0,1.5,0.3,2.1,0.9c0.5,0.6,0.8,1.4,0.8,2.4c0,1-0.3,1.8-0.9,2.4c-0.6,0.6-1.5,0.8-2.5,0.8H-148.4z
			 M-146.7,220.1c1,0,1.7-0.2,2.3-0.7s0.8-1.2,0.8-2.1s-0.2-1.7-0.7-2.2c-0.5-0.5-1-0.8-1.7-0.8s-1.4,0.3-1.9,0.9
			c-0.2,0.2-0.5,0.5-0.7,0.9v3.9c0,0.1,0.1,0.2,0.2,0.2H-146.7z"/>
		<path d="M-139.1,213.9c0.7,0,1.3,0.2,1.7,0.6c0.4,0.4,0.7,0.9,0.7,1.5v3.9c0,0.1,0.1,0.2,0.2,0.2h0.9c0.1,0,0.2,0.1,0.2,0.2
			c0,0.1-0.1,0.2-0.2,0.2h-1.3c-0.1,0-0.2-0.1-0.2-0.2v-0.7c0-0.1,0-0.1-0.1-0.2c0,0-0.1,0-0.2,0.1c-0.2,0.3-0.6,0.6-1,0.8
			c-0.4,0.2-0.8,0.4-1.3,0.4c-0.8,0-1.4-0.2-1.8-0.5c-0.4-0.4-0.6-0.8-0.6-1.4c0-0.6,0.2-1,0.7-1.4c0.5-0.4,1.1-0.5,1.9-0.5h2.1
			c0.1,0,0.2-0.1,0.2-0.2V216c0-0.5-0.2-0.9-0.6-1.2s-0.8-0.5-1.4-0.5c-0.5,0-1,0.1-1.4,0.2c-0.4,0.1-0.6,0.3-0.7,0.4
			c-0.1,0.1-0.2,0.1-0.3,0c-0.1-0.1-0.1-0.2,0-0.3C-140.9,214.2-140.1,213.9-139.1,213.9z M-137.1,217.3c0-0.1-0.1-0.2-0.2-0.2h-2.1
			c-0.7,0-1.3,0.1-1.7,0.4c-0.4,0.3-0.5,0.7-0.5,1.1c0,0.5,0.2,0.8,0.5,1.1c0.3,0.3,0.8,0.4,1.5,0.4c0.8,0,1.6-0.4,2.2-1.3
			c0.1-0.1,0.2-0.3,0.3-0.5V217.3z"/>
		<path d="M-134.5,220.1h0.9c0.1,0,0.2-0.1,0.2-0.2v-5.3c0-0.1-0.1-0.2-0.2-0.2h-0.9c-0.1,0-0.2-0.1-0.2-0.2c0-0.1,0.1-0.2,0.2-0.2
			h1.3c0.1,0,0.2,0.1,0.2,0.2v0.7c0,0.1,0,0.1,0.1,0.2c0,0,0.1,0,0.2-0.1c0.7-0.8,1.5-1.2,2.3-1.2c0.8,0,1.4,0.2,1.9,0.7
			c0.4,0.4,0.7,1.1,0.7,1.9v3.4c0,0.1,0.1,0.2,0.2,0.2h0.9c0.1,0,0.2,0.1,0.2,0.2c0,0.1-0.1,0.2-0.2,0.2h-2.4
			c-0.1,0-0.2-0.1-0.2-0.2c0-0.1,0.1-0.2,0.2-0.2h0.8c0.1,0,0.2-0.1,0.2-0.2v-3.4c0-0.7-0.2-1.3-0.6-1.6c-0.4-0.4-0.9-0.5-1.5-0.5
			c-0.7,0-1.3,0.3-1.9,0.9c-0.3,0.3-0.5,0.5-0.7,0.9v3.9c0,0.1,0.1,0.2,0.2,0.2h0.8c0.1,0,0.2,0.1,0.2,0.2c0,0.1-0.1,0.2-0.2,0.2
			h-2.4c-0.1,0-0.2-0.1-0.2-0.2C-134.7,220.1-134.7,220.1-134.5,220.1z"/>
		<path d="M-123.6,222.5c-0.2,0.2-0.4,0.4-0.6,0.5c-0.2,0.1-0.4,0.1-0.7,0.1c-0.4,0-0.7-0.1-1-0.2c-0.3-0.1-0.5-0.3-0.6-0.5
			c-0.1-0.1-0.1-0.2,0-0.3c0.1-0.1,0.2-0.1,0.3,0c0.1,0.1,0.3,0.3,0.5,0.4c0.2,0.1,0.5,0.2,0.9,0.2c0.4,0,0.7-0.1,0.9-0.4
			c0.3-0.3,0.5-0.8,0.8-1.4l0.1-0.3c0-0.1,0-0.2,0-0.3l-2.7-5.7c-0.1-0.1-0.2-0.2-0.3-0.2h-0.8c-0.1,0-0.2-0.1-0.2-0.2
			c0-0.1,0.1-0.2,0.2-0.2h2.4c0.1,0,0.2,0.1,0.2,0.2c0,0.1-0.1,0.2-0.2,0.2h-0.8c-0.2,0-0.2,0.1-0.1,0.2l2.4,5.1
			c0,0.1,0.1,0.1,0.1,0l2-5.1c0.1-0.1,0-0.2-0.1-0.2h-0.8c-0.1,0-0.2-0.1-0.2-0.2c0-0.1,0.1-0.2,0.2-0.2h2.4c0.1,0,0.2,0.1,0.2,0.2
			c0,0.1-0.1,0.2-0.2,0.2h-0.8c-0.1,0-0.2,0.1-0.3,0.2l-2.4,6.3C-123.1,221.8-123.4,222.3-123.6,222.5z"/>
	</g>
</g>
</svg>
